<svg width="137" height="44" viewBox="0 0 137 44" fill="none" xmlns="http://www.w3.org/2000/svg">
<g clip-path="url(#clip0_759_8660)">
<path d="M8.31564 9.17032C7.47908 10.1712 6.38448 10.5507 5.33566 10.5507C1.97694 10.5548 0 8.22368 0 5.3212C0 2.41873 1.97694 0 5.33566 0C7.554 0 9.65164 1.26775 9.91384 3.5572H7.63308C7.35839 2.44375 6.46356 1.86409 5.33566 1.86409C3.19224 1.86409 2.38482 3.5572 2.38482 5.3212C2.38482 7.08521 3.19224 8.69491 5.33566 8.69491C6.88392 8.69491 7.78291 7.91925 7.92025 6.52223H5.51879V4.87082H10.0803V10.3171H8.5612L8.3198 9.17449L8.31564 9.17032Z" fill="black"/>
<path d="M11.7244 0.237701H17.5761C19.5239 0.237701 20.7559 1.49294 20.7559 3.01924C20.7559 4.20358 20.2398 5.09184 19.037 5.54222V5.57141C20.2065 5.85499 20.5436 6.91005 20.6185 7.92759C20.6643 8.56146 20.6477 9.74998 21.0722 10.313H18.6874C18.396 9.67908 18.4293 8.70325 18.3045 7.8984C18.138 6.83916 17.6968 6.3721 16.4982 6.3721H14.1092V10.3088H11.7202V0.237701H11.7244ZM14.1092 4.79575H16.7229C17.7884 4.79575 18.3627 4.37039 18.3627 3.35703C18.3627 2.34366 17.7842 1.96 16.7229 1.96H14.1092V4.79575Z" fill="black"/>
<path d="M31.6271 6.50554C31.6271 9.2287 29.8916 10.5548 26.9907 10.5548C24.0898 10.5548 22.3667 9.24121 22.3667 6.50554V0.237701H24.7557V6.50137C24.7557 7.60231 25.0595 8.68657 26.9907 8.68657C28.6929 8.68657 29.2423 7.99431 29.2423 6.50137V0.237701H31.6271V6.50137V6.50554Z" fill="black"/>
<path d="M33.3916 0.237701H38.2861C40.9914 0.237701 42.0402 1.83073 42.0402 3.46962C42.0402 5.10852 40.9914 6.70154 38.2861 6.70154H35.7764V10.313H33.3916V0.237701ZM35.7806 4.97924H37.6368C38.7481 4.97924 39.7345 4.75405 39.7345 3.46962C39.7345 2.18519 38.7481 1.96 37.6368 1.96H35.7806V4.97924Z" fill="black"/>
<path d="M48.1125 0C51.4712 0 53.4482 2.32698 53.4482 5.3212C53.4482 8.31542 51.4712 10.5548 48.1125 10.5548C44.7538 10.5548 42.7769 8.22785 42.7769 5.3212C42.7769 2.41456 44.7538 0 48.1125 0ZM48.1125 8.69074C50.2559 8.69074 51.0634 6.99763 51.0634 5.31703C51.0634 3.55303 50.2559 1.85992 48.1125 1.85992C45.9691 1.85992 45.1617 3.55303 45.1617 5.31703C45.1617 7.08104 45.9691 8.69074 48.1125 8.69074Z" fill="black"/>
<path d="M0.628418 15.5591H21.7755V20.7176H7.24181V27.1648H19.836V31.9314H7.24181V43.4579H0.628418V15.5591Z" fill="black"/>
<path d="M21.8252 37.4361H28.4386V43.4537H21.8252V37.4361Z" fill="black"/>
<path d="M37.8198 20.7176H28.8091V15.5591H53.448V20.7176H44.4332V43.4579H37.8198V20.7176Z" fill="black"/>
<path d="M62.1632 22.7068C69.0304 22.7068 73.4505 26.9271 73.4505 33.3743C73.4505 39.8214 69.0304 44 62.1632 44C55.2959 44 50.9175 39.7797 50.9175 33.3743C50.9175 26.9688 55.3417 22.7068 62.1632 22.7068ZM62.1632 39.8214C66.2502 39.8214 67.4697 36.577 67.4697 33.3743C67.4697 30.1715 66.2461 26.8896 62.1632 26.8896C58.0803 26.8896 56.8983 30.134 56.8983 33.3743C56.8983 36.6145 58.1219 39.8214 62.1632 39.8214Z" fill="black"/>
<path d="M78.0413 23.2573H83.6849V25.993H83.7682C85.3289 23.9246 87.6013 22.711 90.4232 22.711C93.245 22.711 95.6048 23.6493 96.7827 26.0722C98.0438 24.3166 100.32 22.711 103.354 22.711C107.987 22.711 111.316 24.7044 111.316 29.938V43.4579H105.336V32.0106C105.336 29.3167 105.082 27.0898 101.669 27.0898C98.256 27.0898 97.6692 29.667 97.6692 32.2066V43.4579H91.6842V32.1274C91.6842 29.7837 91.8549 27.0856 88.0633 27.0856C86.8855 27.0856 84.0179 27.7904 84.0179 31.7354V43.4579H78.0371V23.2573H78.0413Z" fill="black"/>
<path d="M121.255 34.7046C121.426 38.2201 123.278 39.8214 126.603 39.8214C129.005 39.8214 130.944 38.4536 131.323 37.2025H136.588C134.902 41.9691 131.323 44 126.395 44C119.532 44 115.274 39.6254 115.274 33.3743C115.274 27.1231 119.782 22.7069 126.395 22.7069C133.808 22.7069 137.391 28.491 136.967 34.7004H121.255V34.7046ZM130.986 31.1849C130.437 28.3742 129.134 26.8896 126.229 26.8896C122.437 26.8896 121.343 29.6253 121.255 31.1849H130.986ZM127.153 20.7552H122.982L127.028 15.2088H133.641L127.153 20.7552Z" fill="black"/>
</g>
<defs>
<clipPath id="clip0_759_8660">
<rect width="137" height="44" fill="white"/>
</clipPath>
</defs>
</svg>
